<mxfile host="app.diagrams.net" modified="2022-09-03T15:07:08.058Z" agent="5.0 (Windows NT 10.0; Win64; x64) AppleWebKit/537.36 (KHTML, like Gecko) Chrome/105.0.0.0 Safari/537.36" etag="vgnkoKDNd6foj1xMx_Lx" version="20.2.8" type="github">
  <diagram name="Page-1" id="c37626ed-c26b-45fb-9056-f9ebc6bb27b6">
    <mxGraphModel dx="1157" dy="600" grid="1" gridSize="10" guides="1" tooltips="1" connect="1" arrows="1" fold="1" page="1" pageScale="1" pageWidth="1100" pageHeight="850" background="none" math="0" shadow="0">
      <root>
        <mxCell id="0" />
        <mxCell id="1" parent="0" />
        <mxCell id="j8-OFiakiLlbEGH0sNci-2" value="" style="rounded=0;whiteSpace=wrap;html=1;points=[[0.08,0,0,0,0],[0.08,1,0,0,0],[0.15,0,0,0,0],[0.15,1,0,0,0],[0.23,0,0,0,0],[0.23,1,0,0,0],[0.31,0,0,0,0],[0.31,1,0,0,0],[0.38,0,0,0,0],[0.38,1,0,0,0],[0.46,0,0,0,0],[0.46,1,0,0,0],[0.54,0,0,0,0],[0.54,1,0,0,0],[0.62,0,0,0,0],[0.62,1,0,0,0],[0.69,0,0,0,0],[0.69,1,0,0,0],[0.77,0,0,0,0],[0.77,1,0,0,0],[0.85,0,0,0,0],[0.85,1,0,0,0],[0.92,0,0,0,0],[0.92,1,0,0,0]];" vertex="1" parent="1">
          <mxGeometry x="40" y="80" width="160" height="40" as="geometry" />
        </mxCell>
      </root>
    </mxGraphModel>
  </diagram>
</mxfile>
